<svg xmlns="http://www.w3.org/2000/svg" xmlns:xlink="http://www.w3.org/1999/xlink" width="200" zoomAndPan="magnify" viewBox="0 0 150 89.999999" height="120" preserveAspectRatio="xMidYMid meet" version="1.0"><defs><g/><clipPath id="0bbc64fa40"><path d="M 53 26 L 97 26 L 97 73.613281 L 53 73.613281 Z M 53 26 " clip-rule="nonzero"/></clipPath><clipPath id="4910b4c3fb"><path d="M 45 16.613281 L 105 16.613281 L 105 47 L 45 47 Z M 45 16.613281 " clip-rule="nonzero"/></clipPath></defs><g clip-path="url(#0bbc64fa40)"><path fill="#ffffff" d="M 96.0625 45.585938 Z M 96.0625 45.585938 L 75.007812 26.863281 L 53.9375 45.59375 L 53.9375 72.359375 C 53.9375 73.050781 54.492188 73.605469 55.179688 73.605469 L 68.347656 73.605469 L 68.347656 61.871094 C 68.347656 61.179688 68.902344 60.621094 69.589844 60.621094 L 80.410156 60.621094 C 81.097656 60.621094 81.652344 61.179688 81.652344 61.871094 L 81.652344 73.605469 L 94.824219 73.605469 C 95.511719 73.605469 96.0625 73.050781 96.0625 72.359375 Z M 53.9375 45.59375 Z M 53.9375 45.59375 " fill-opacity="1" fill-rule="nonzero"/></g><g clip-path="url(#4910b4c3fb)"><path fill="#ffffff" d="M 74.882812 16.617188 L 45 43.179688 L 48.148438 46.746094 L 75.007812 22.871094 L 101.859375 46.746094 L 105 43.179688 L 75.121094 16.617188 L 75.007812 16.75 Z M 74.882812 16.617188 " fill-opacity="1" fill-rule="nonzero"/></g><path fill="#ffffff" d="M 53.9375 20.441406 L 61.511719 20.441406 L 61.445312 24.945312 L 53.9375 31.757812 Z M 53.9375 20.441406 " fill-opacity="1" fill-rule="nonzero"/><g fill="#000000" fill-opacity="1"><g transform="translate(0.000000833333, 66.83076)"><g><path d="M 5 -6.671875 L 5 0 L 1.203125 0 L 1.203125 -16.640625 L 5 -16.640625 L 5 -10 L 10.375 -10 L 10.375 -16.640625 L 14.15625 -16.640625 L 14.15625 0 L 10.375 0 L 10.375 -6.671875 Z M 5 -6.671875 "/></g></g></g><g fill="#000000" fill-opacity="1"><g transform="translate(15.373005, 66.83076)"><g><path d="M 0.46875 -8.328125 C 0.46875 -10.734375 1.285156 -12.769531 2.921875 -14.4375 C 4.566406 -16.101562 6.546875 -16.9375 8.859375 -16.9375 C 11.179688 -16.9375 13.15625 -16.109375 14.78125 -14.453125 C 16.414062 -12.796875 17.234375 -10.753906 17.234375 -8.328125 C 17.234375 -5.898438 16.429688 -3.851562 14.828125 -2.1875 C 13.222656 -0.53125 11.234375 0.296875 8.859375 0.296875 C 6.421875 0.296875 4.410156 -0.523438 2.828125 -2.171875 C 1.253906 -3.816406 0.46875 -5.867188 0.46875 -8.328125 Z M 4.5625 -8.328125 C 4.5625 -7.453125 4.691406 -6.65625 4.953125 -5.9375 C 5.222656 -5.21875 5.695312 -4.609375 6.375 -4.109375 C 7.050781 -3.617188 7.878906 -3.375 8.859375 -3.375 C 10.265625 -3.375 11.328125 -3.859375 12.046875 -4.828125 C 12.765625 -5.796875 13.125 -6.960938 13.125 -8.328125 C 13.125 -9.691406 12.757812 -10.859375 12.03125 -11.828125 C 11.300781 -12.804688 10.242188 -13.296875 8.859375 -13.296875 C 7.484375 -13.296875 6.421875 -12.804688 5.671875 -11.828125 C 4.929688 -10.859375 4.5625 -9.691406 4.5625 -8.328125 Z M 4.5625 -8.328125 "/></g></g></g><g fill="#000000" fill-opacity="1"><g transform="translate(33.066084, 66.83076)"><g><path d="M 14 -16.640625 L 14 -5.90625 C 14 -3.863281 13.445312 -2.316406 12.34375 -1.265625 C 11.238281 -0.222656 9.625 0.296875 7.5 0.296875 C 5.375 0.296875 3.757812 -0.222656 2.65625 -1.265625 C 1.5625 -2.316406 1.015625 -3.863281 1.015625 -5.90625 L 1.015625 -16.640625 L 4.796875 -16.640625 L 4.796875 -7.015625 C 4.796875 -5.671875 5.007812 -4.734375 5.4375 -4.203125 C 5.863281 -3.679688 6.550781 -3.421875 7.5 -3.421875 C 8.457031 -3.421875 9.144531 -3.679688 9.5625 -4.203125 C 9.988281 -4.734375 10.203125 -5.671875 10.203125 -7.015625 L 10.203125 -16.640625 Z M 14 -16.640625 "/></g></g></g><g fill="#000000" fill-opacity="1"><g transform="translate(48.075948, 66.83076)"><g><path d="M 7.34375 -16.9375 C 8.238281 -16.9375 9.117188 -16.804688 9.984375 -16.546875 C 10.847656 -16.285156 11.488281 -16.03125 11.90625 -15.78125 L 12.5 -15.375 L 10.96875 -12.34375 C 10.851562 -12.425781 10.6875 -12.53125 10.46875 -12.65625 C 10.25 -12.78125 9.84375 -12.953125 9.25 -13.171875 C 8.664062 -13.390625 8.117188 -13.5 7.609375 -13.5 C 6.972656 -13.5 6.484375 -13.363281 6.140625 -13.09375 C 5.796875 -12.820312 5.625 -12.457031 5.625 -12 C 5.625 -11.769531 5.703125 -11.554688 5.859375 -11.359375 C 6.023438 -11.171875 6.300781 -10.960938 6.6875 -10.734375 C 7.082031 -10.515625 7.425781 -10.335938 7.71875 -10.203125 C 8.019531 -10.066406 8.476562 -9.867188 9.09375 -9.609375 C 10.175781 -9.148438 11.09375 -8.523438 11.84375 -7.734375 C 12.601562 -6.953125 12.984375 -6.0625 12.984375 -5.0625 C 12.984375 -4.101562 12.8125 -3.269531 12.46875 -2.5625 C 12.132812 -1.851562 11.664062 -1.296875 11.0625 -0.890625 C 10.46875 -0.484375 9.804688 -0.1875 9.078125 0 C 8.347656 0.195312 7.5625 0.296875 6.71875 0.296875 C 5.988281 0.296875 5.273438 0.222656 4.578125 0.078125 C 3.878906 -0.0664062 3.296875 -0.25 2.828125 -0.46875 C 2.359375 -0.695312 1.929688 -0.914062 1.546875 -1.125 C 1.171875 -1.34375 0.894531 -1.523438 0.71875 -1.671875 L 0.46875 -1.890625 L 2.359375 -5.078125 C 2.523438 -4.941406 2.75 -4.769531 3.03125 -4.5625 C 3.3125 -4.351562 3.8125 -4.070312 4.53125 -3.71875 C 5.25 -3.375 5.882812 -3.203125 6.4375 -3.203125 C 8.03125 -3.203125 8.828125 -3.75 8.828125 -4.84375 C 8.828125 -5.070312 8.769531 -5.28125 8.65625 -5.46875 C 8.550781 -5.664062 8.351562 -5.863281 8.0625 -6.0625 C 7.769531 -6.257812 7.507812 -6.414062 7.28125 -6.53125 C 7.0625 -6.644531 6.703125 -6.816406 6.203125 -7.046875 C 5.703125 -7.285156 5.328125 -7.460938 5.078125 -7.578125 C 4.078125 -8.078125 3.300781 -8.695312 2.75 -9.4375 C 2.195312 -10.1875 1.921875 -10.992188 1.921875 -11.859375 C 1.921875 -13.347656 2.46875 -14.566406 3.5625 -15.515625 C 4.664062 -16.460938 5.925781 -16.9375 7.34375 -16.9375 Z M 7.34375 -16.9375 "/></g></g></g><g fill="#000000" fill-opacity="1"><g transform="translate(61.633241, 66.83076)"><g><path d="M 10.734375 -16.640625 L 10.734375 -13.3125 L 5 -13.3125 L 5 -10 L 10.484375 -10 L 10.484375 -6.671875 L 5 -6.671875 L 5 -3.328125 L 10.734375 -3.328125 L 10.734375 0 L 1.203125 0 L 1.203125 -16.640625 Z M 10.734375 -16.640625 "/></g></g></g><g fill="#000000" fill-opacity="1"><g transform="translate(73.334477, 66.83076)"><g><path d="M 10.828125 -16.640625 L 10.828125 -13.3125 L 5 -13.3125 L 5 -10 L 10.390625 -10 L 10.390625 -6.671875 L 5 -6.671875 L 5 0 L 1.203125 0 L 1.203125 -16.640625 Z M 10.828125 -16.640625 "/></g></g></g><g fill="#000000" fill-opacity="1"><g transform="translate(84.773447, 66.83076)"><g><path d="M 5 -16.640625 L 5 0 L 1.203125 0 L 1.203125 -16.640625 Z M 5 -16.640625 "/></g></g></g><g fill="#000000" fill-opacity="1"><g transform="translate(90.987211, 66.83076)"><g><path d="M 5 -10.328125 L 5 0 L 1.203125 0 L 1.203125 -16.640625 L 5 -16.640625 L 11.625 -6.3125 L 11.65625 -6.3125 L 11.65625 -16.640625 L 15.453125 -16.640625 L 15.453125 0 L 11.65625 0 L 5.046875 -10.328125 Z M 5 -10.328125 "/></g></g></g><g fill="#000000" fill-opacity="1"><g transform="translate(107.651386, 66.83076)"><g><path d="M 1.203125 -16.640625 L 6.03125 -16.640625 C 8.34375 -16.640625 10.316406 -15.847656 11.953125 -14.265625 C 13.597656 -12.691406 14.421875 -10.710938 14.421875 -8.328125 C 14.421875 -5.929688 13.601562 -3.941406 11.96875 -2.359375 C 10.332031 -0.785156 8.351562 0 6.03125 0 L 1.203125 0 Z M 5 -3.390625 L 5.59375 -3.390625 C 6.976562 -3.390625 8.109375 -3.851562 8.984375 -4.78125 C 9.867188 -5.71875 10.316406 -6.894531 10.328125 -8.3125 C 10.328125 -9.71875 9.882812 -10.890625 9 -11.828125 C 8.125 -12.773438 6.988281 -13.25 5.59375 -13.25 L 5 -13.25 Z M 5 -3.390625 "/></g></g></g><g fill="#000000" fill-opacity="1"><g transform="translate(122.540201, 66.83076)"><g><path d="M 10.734375 -16.640625 L 10.734375 -13.3125 L 5 -13.3125 L 5 -10 L 10.484375 -10 L 10.484375 -6.671875 L 5 -6.671875 L 5 -3.328125 L 10.734375 -3.328125 L 10.734375 0 L 1.203125 0 L 1.203125 -16.640625 Z M 10.734375 -16.640625 "/></g></g></g><g fill="#000000" fill-opacity="1"><g transform="translate(134.241437, 66.83076)"><g><path d="M 1.203125 -16.640625 L 7.15625 -16.640625 C 8.757812 -16.640625 10.066406 -16.210938 11.078125 -15.359375 C 12.085938 -14.503906 12.59375 -13.285156 12.59375 -11.703125 C 12.59375 -10.472656 12.285156 -9.445312 11.671875 -8.625 C 11.054688 -7.800781 10.222656 -7.21875 9.171875 -6.875 L 14.90625 0 L 10.09375 0 L 5 -6.578125 L 5 0 L 1.203125 0 Z M 5 -9.265625 L 5.453125 -9.265625 C 5.796875 -9.265625 6.085938 -9.269531 6.328125 -9.28125 C 6.578125 -9.289062 6.851562 -9.335938 7.15625 -9.421875 C 7.46875 -9.503906 7.71875 -9.617188 7.90625 -9.765625 C 8.09375 -9.910156 8.253906 -10.125 8.390625 -10.40625 C 8.523438 -10.6875 8.59375 -11.03125 8.59375 -11.4375 C 8.59375 -11.84375 8.523438 -12.1875 8.390625 -12.46875 C 8.253906 -12.75 8.09375 -12.960938 7.90625 -13.109375 C 7.71875 -13.253906 7.46875 -13.367188 7.15625 -13.453125 C 6.851562 -13.535156 6.578125 -13.582031 6.328125 -13.59375 C 6.085938 -13.601562 5.796875 -13.609375 5.453125 -13.609375 L 5 -13.609375 Z M 5 -9.265625 "/></g></g></g><path stroke-linecap="butt" transform="matrix(0.5, -0.000000000000000047, 0.000000000000000047, 0.5, 0.000000833333, 68.539671)" fill="none" stroke-linejoin="miter" d="M -0.00000166667 0.998783 L 299.99999 0.998783 " stroke="#000000" stroke-width="2" stroke-opacity="1" stroke-miterlimit="4"/></svg>